<svg width="608" height="81" viewBox="0 0 608 81" fill="none" xmlns="http://www.w3.org/2000/svg">
<path d="M141.123 48.8636V9.18182H163.309V79H142.123V66H141.395C139.85 70.2727 137.213 73.6667 133.484 76.1818C129.787 78.6667 125.316 79.9091 120.072 79.9091C115.314 79.9091 111.131 78.8182 107.524 76.6364C103.917 74.4545 101.114 71.4091 99.1131 67.5C97.1127 63.5606 96.0973 58.9545 96.067 53.6818V9.18182H118.299V49.3182C118.33 53.1061 119.33 56.0909 121.3 58.2727C123.27 60.4545 125.952 61.5455 129.347 61.5455C131.56 61.5455 133.545 61.0606 135.303 60.0909C137.091 59.0909 138.501 57.6515 139.531 55.7727C140.592 53.8636 141.123 51.5606 141.123 48.8636Z" fill="black"/>
<path d="M199.693 39.1818V79H177.46V9.18182H198.601V22H199.374C200.92 17.7273 203.557 14.3788 207.285 11.9545C211.013 9.5 215.454 8.27273 220.606 8.27273C225.516 8.27273 229.775 9.37879 233.382 11.5909C237.019 13.7727 239.838 16.8333 241.838 20.7727C243.869 24.6818 244.869 29.2576 244.839 34.5V79H222.607V38.8636C222.637 34.9848 221.652 31.9545 219.652 29.7727C217.681 27.5909 214.938 26.5 211.422 26.5C209.089 26.5 207.027 27.0152 205.239 28.0455C203.481 29.0455 202.117 30.4848 201.147 32.3636C200.208 34.2424 199.723 36.5151 199.693 39.1818Z" fill="black"/>
<path d="M291.202 80.3182C283.836 80.3182 277.517 78.803 272.243 75.7727C266.999 72.7424 262.968 68.5303 260.149 63.1364C257.33 57.7121 255.921 51.4394 255.921 44.3182C255.921 37.1667 257.33 30.8939 260.149 25.5C262.998 20.0758 267.045 15.8485 272.288 12.8182C277.562 9.78788 283.852 8.27273 291.156 8.27273C297.612 8.27273 303.235 9.43939 308.024 11.7727C312.843 14.1061 316.601 17.4091 319.299 21.6818C322.027 25.9242 323.467 30.9091 323.618 36.6364H302.841C302.416 33.0606 301.204 30.2576 299.203 28.2273C297.233 26.197 294.657 25.1818 291.474 25.1818C288.898 25.1818 286.64 25.9091 284.7 27.3636C282.76 28.7879 281.245 30.9091 280.154 33.7273C279.093 36.5151 278.562 39.9697 278.562 44.0909C278.562 48.2121 279.093 51.697 280.154 54.5455C281.245 57.3636 282.76 59.5 284.7 60.9545C286.64 62.3788 288.898 63.0909 291.474 63.0909C293.536 63.0909 295.354 62.6515 296.93 61.7727C298.537 60.8939 299.855 59.6061 300.886 57.9091C301.916 56.1818 302.568 54.0909 302.841 51.6364H323.618C323.406 57.3939 321.966 62.4242 319.299 66.7273C316.662 71.0303 312.949 74.3788 308.16 76.7727C303.401 79.1364 297.749 80.3182 291.202 80.3182Z" fill="black"/>
<path d="M367.594 80.3182C360.259 80.3182 353.954 78.8182 348.68 75.8182C343.437 72.7879 339.391 68.5758 336.541 63.1818C333.723 57.7576 332.313 51.4697 332.313 44.3182C332.313 37.1364 333.723 30.8485 336.541 25.4545C339.391 20.0303 343.437 15.8182 348.68 12.8182C353.954 9.78788 360.259 8.27273 367.594 8.27273C374.929 8.27273 381.218 9.78788 386.462 12.8182C391.736 15.8182 395.782 20.0303 398.601 25.4545C401.45 30.8485 402.874 37.1364 402.874 44.3182C402.874 51.4697 401.45 57.7576 398.601 63.1818C395.782 68.5758 391.736 72.7879 386.462 75.8182C381.218 78.8182 374.929 80.3182 367.594 80.3182ZM367.73 63.5455C370.397 63.5455 372.656 62.7273 374.504 61.0909C376.353 59.4545 377.763 57.1818 378.733 54.2727C379.733 51.3636 380.233 48 380.233 44.1818C380.233 40.303 379.733 36.9091 378.733 34C377.763 31.0909 376.353 28.8182 374.504 27.1818C372.656 25.5455 370.397 24.7273 367.73 24.7273C364.972 24.7273 362.638 25.5455 360.729 27.1818C358.849 28.8182 357.41 31.0909 356.41 34C355.44 36.9091 354.955 40.303 354.955 44.1818C354.955 48 355.44 51.3636 356.41 54.2727C357.41 57.1818 358.849 59.4545 360.729 61.0909C362.638 62.7273 364.972 63.5455 367.73 63.5455Z" fill="black"/>
<path d="M479.755 9.18182L455.795 79H430.335L406.421 9.18182H429.835L442.702 57.2727H443.429L456.341 9.18182H479.755Z" fill="black"/>
<path d="M518.673 80.3182C511.368 80.3182 505.064 78.8788 499.76 76C494.486 73.0909 490.424 68.9545 487.575 63.5909C484.756 58.197 483.347 51.7879 483.347 44.3636C483.347 37.1515 484.772 30.8485 487.621 25.4545C490.47 20.0303 494.486 15.8182 499.669 12.8182C504.852 9.78788 510.959 8.27273 517.991 8.27273C522.962 8.27273 527.508 9.04545 531.631 10.5909C535.753 12.1364 539.314 14.4242 542.315 17.4545C545.315 20.4848 547.649 24.2273 549.316 28.6818C550.983 33.1061 551.817 38.1818 551.817 43.9091V49.4545H491.122V36.5455H531.13C531.1 34.1818 530.539 32.0758 529.448 30.2273C528.357 28.3788 526.857 26.9394 524.947 25.9091C523.068 24.8485 520.901 24.3182 518.446 24.3182C515.96 24.3182 513.733 24.8788 511.763 26C509.792 27.0909 508.231 28.5909 507.08 30.5C505.928 32.3788 505.322 34.5151 505.261 36.9091V50.0455C505.261 52.8939 505.822 55.3939 506.943 57.5455C508.065 59.6667 509.656 61.3182 511.717 62.5C513.778 63.6818 516.233 64.2727 519.082 64.2727C521.053 64.2727 522.841 64 524.447 63.4545C526.054 62.9091 527.433 62.1061 528.585 61.0455C529.736 59.9848 530.6 58.6818 531.176 57.1364L551.59 57.7273C550.741 62.303 548.877 66.2879 545.997 69.6818C543.148 73.0455 539.405 75.6667 534.768 77.5455C530.13 79.3939 524.765 80.3182 518.673 80.3182Z" fill="black"/>
<path d="M563.172 79V9.18182H584.768V21.9091H585.495C586.768 17.303 588.844 13.8788 591.724 11.6364C594.603 9.36363 597.952 8.22727 601.771 8.22727C602.802 8.22727 603.863 8.30303 604.954 8.45454C606.045 8.57575 607.06 8.77273 608 9.04546V28.3636C606.939 28 605.545 27.7121 603.817 27.5C602.12 27.2879 600.604 27.1818 599.271 27.1818C596.634 27.1818 594.255 27.7727 592.133 28.9545C590.041 30.1061 588.39 31.7273 587.177 33.8182C585.995 35.8788 585.404 38.303 585.404 41.0909V79H563.172Z" fill="black"/>
<path d="M0 0H81.0182V81H0V0Z" fill="#232323"/>
</svg>
